<svg id="Icon" enable-background="new 0 0 96 96" viewBox="0 0 96 96" xmlns="http://www.w3.org/2000/svg"><path id="List" d="m74 21h-5v-2c0-2.206-1.794-4-4-4h-5.167c-.955-5.668-5.897-10-11.833-10s-10.878 4.332-11.833 10h-5.167c-2.206 0-4 1.794-4 4v2h-5c-3.309 0-6 2.691-6 6v58c0 3.309 2.691 6 6 6h52c3.309 0 6-2.691 6-6v-58c0-3.309-2.691-6-6-6zm-43-2h7c1.104 0 2-.896 2-2 0-4.411 3.589-8 8-8s8 3.589 8 8c0 1.104.896 2 2 2h7v8h-34zm45 66c0 1.103-.897 2-2 2h-52c-1.103 0-2-.897-2-2v-58c0-1.103.897-2 2-2h5v2c0 2.206 1.794 4 4 4h34c2.206 0 4-1.794 4-4v-2h5c1.103 0 2 .897 2 2zm-6-42c0 1.104-.896 2-2 2h-24c-1.104 0-2-.896-2-2s.896-2 2-2h24c1.104 0 2 .896 2 2zm0 16c0 1.104-.896 2-2 2h-24c-1.104 0-2-.896-2-2s.896-2 2-2h24c1.104 0 2 .896 2 2zm-34-22h-8c-1.104 0-2 .896-2 2v8c0 1.104.896 2 2 2h8c1.104 0 2-.896 2-2v-8c0-1.104-.896-2-2-2zm-2 8h-4v-4h4zm2 8h-8c-1.104 0-2 .896-2 2v8c0 1.104.896 2 2 2h8c1.104 0 2-.896 2-2v-8c0-1.104-.896-2-2-2zm-2 8h-4v-4h4zm36 14c0 1.104-.896 2-2 2h-24c-1.104 0-2-.896-2-2s.896-2 2-2h24c1.104 0 2 .896 2 2zm-34-6h-8c-1.104 0-2 .896-2 2v8c0 1.104.896 2 2 2h8c1.104 0 2-.896 2-2v-8c0-1.104-.896-2-2-2zm-2 8h-4v-4h4z" fill="#000000" style="fill: rgb(255, 255, 255);"></path></svg>